<svg width="114" height="40" viewBox="0 0 114 40" fill="none" xmlns="http://www.w3.org/2000/svg">
<mask id="mask0_235_21308" style="mask-type:luminance" maskUnits="userSpaceOnUse" x="0" y="0" width="114" height="40">
<path d="M114 0H0V40H114V0Z" fill="white"/>
</mask>
<g mask="url(#mask0_235_21308)">
<path d="M34 26.2615V23.4045L21.25 16.2615V8.40441C21.25 7.21872 20.245 4.83301 19 4.83301C17.755 4.83301 16.75 7.21872 16.75 8.40441V16.2615L4 23.4045V26.2615L16.75 22.6902V30.5473L13 32.6902V34.833L19 33.4045L25 34.833V32.6902L21.25 30.5473V22.6902L34 26.2615Z" fill="#11397E"/>
<path d="M1 20.333C1 10.3966 9.06356 2.33301 19 2.33301C28.9366 2.33301 37 10.3966 37 20.333C37 30.2696 28.9366 38.333 19 38.333C9.06355 38.333 1 30.2696 1 20.333Z" stroke="#11397E" stroke-width="2"/>
<path d="M50.7592 15.4395L53.8123 24.2969L53.2537 24.0527L54.4769 24.2871L54.4094 25.166H50.3836L50.451 24.2675C50.7335 24.1373 51.0994 24.0267 51.5489 23.9355L51.3563 24.1992L48.7751 16.1035L48.3899 15.4883C48.7302 15.4557 49.1026 15.4362 49.5071 15.4297C49.9181 15.4167 50.3354 15.4199 50.7592 15.4395ZM49.7094 15.498L46.8778 24.2969L46.6562 24.0234L47.889 24.2871L47.8216 25.166H44.7589L44.8263 24.3066C44.9483 24.235 45.1088 24.1699 45.3079 24.1113C45.5069 24.0462 45.7252 23.9876 45.9628 23.9355L45.356 24.2969L48.3899 15.4883L49.7094 15.498ZM46.7237 22.5781L47.0415 21.3672H51.6742L52.0016 22.5781H46.7237ZM56.6431 25.0195V15.6347H58.9546V25.0195H56.6431ZM55.7377 25.166L55.8052 24.3066C56.1134 24.1699 56.5147 24.0429 57.0091 23.9257L56.6431 24.9219V23.3887H58.9546V24.9219L58.6175 24.0039L59.8985 24.2871L59.831 25.166H55.7377ZM59.8599 15.498L59.7925 16.3574C59.4843 16.4941 59.083 16.6211 58.5886 16.7383L58.9546 15.7422V17.2754H56.6431V15.7422L56.9802 16.6601L55.6992 16.3769L55.7667 15.498H59.8599ZM68.0454 25.166L65.0889 21.2011L67.3906 20.5469L70.3184 24.2969L69.4518 24.0039L70.7425 24.248L70.6747 25.166H68.0454ZM65.3971 21.5723C64.7551 21.5723 64.068 21.5332 63.3361 21.4551L63.4805 20.2832C64.206 20.3613 64.9027 20.4004 65.5705 20.4004C66.6173 20.4004 67.1407 19.7819 67.1407 18.5449C67.1407 17.36 66.643 16.7675 65.6475 16.7675H63.5287V15.498H65.7342C67.0053 15.498 67.9816 15.7422 68.6621 16.2305C69.3426 16.7122 69.6832 17.4089 69.6832 18.3203C69.6832 19.1146 69.4229 19.7689 68.9028 20.2832C68.3893 20.791 67.6476 21.1198 66.6778 21.2695L66.0716 21.5332C65.9686 21.5462 65.8594 21.556 65.7439 21.5625C65.6283 21.569 65.5127 21.5723 65.3971 21.5723ZM62.4981 25.0195V15.6347H64.8096V25.0195H62.4981ZM61.5928 25.166L61.6602 24.3066C61.9684 24.1699 62.3697 24.0429 62.8641 23.9257L62.4981 24.9219V23.3887H64.8096V24.9219L64.4918 24.0039L65.6765 24.2871L65.609 25.166H61.5928ZM65.7149 15.498L65.6475 16.3574C65.3394 16.4941 64.938 16.6211 64.4437 16.7383L64.8096 15.7422V17.2754H62.4981V15.7422L62.8352 16.6601L61.5542 16.3769L61.6217 15.498H65.7149ZM74.0069 25.2246L71.5025 16.3574L72.0515 16.6113L70.8286 16.3769L70.8956 15.498H74.9984L74.9313 16.3769C74.6743 16.4941 74.2699 16.6048 73.7176 16.709L73.9293 16.416L75.9426 24.4238L76.222 25.1757C75.9268 25.2083 75.5731 25.2279 75.1621 25.2343C74.7512 25.2474 74.3666 25.2441 74.0069 25.2246ZM76.222 25.1757L74.9984 25.0293L77.2812 15.8203L78.6008 15.8301L76.222 25.1757ZM79.5831 25.2246L77.4357 16.4355L77.2812 15.8203C77.6021 15.7877 77.9492 15.7682 78.3214 15.7617C78.6942 15.7487 79.0597 15.7487 79.4194 15.7617L81.4997 24.4141L81.7982 25.1757C81.503 25.2083 81.1499 25.2279 80.739 25.2343C80.328 25.2474 79.9427 25.2441 79.5831 25.2246ZM81.7982 25.1757L80.5562 25.0195L82.7805 16.3672L83.0409 16.6406L81.7022 16.3769L81.7693 15.498H84.8897L84.8227 16.3574C84.7004 16.4225 84.5399 16.4876 84.3407 16.5527C84.1481 16.6178 83.9298 16.6764 83.6859 16.7285L84.2737 16.3769L81.7982 25.1757ZM90.8414 15.4395L93.8948 24.2969L93.3359 24.0527L94.5588 24.2871L94.4918 25.166H90.4659L90.533 24.2675C90.8157 24.1373 91.1819 24.0267 91.631 23.9355L91.4384 24.1992L88.857 16.1035L88.4718 15.4883C88.8123 15.4557 89.1845 15.4362 89.5895 15.4297C90.0004 15.4167 90.4173 15.4199 90.8414 15.4395ZM89.7913 15.498L86.9602 24.2969L86.7386 24.0234L87.9714 24.2871L87.9037 25.166H84.8411L84.9088 24.3066C85.0304 24.235 85.1909 24.1699 85.3901 24.1113C85.5893 24.0462 85.8076 23.9876 86.0449 23.9355L85.4381 24.2969L88.4718 15.4883L89.7913 15.498ZM86.8057 22.5781L87.1239 21.3672H91.7566L92.084 22.5781H86.8057ZM97.7943 21.8066L95.0013 16.3672L95.5885 16.6113L94.3655 16.3769L94.4332 15.498H98.5551L98.488 16.3769C98.2309 16.4941 97.8266 16.6048 97.2743 16.709L97.4478 16.4648L99.7589 21.1328L100.086 21.7578L97.7943 21.8066ZM98.7286 21.748L101.339 16.3672L101.551 16.6406L100.202 16.3769L100.27 15.498H103.428L103.361 16.3574C103.239 16.4225 103.079 16.4876 102.879 16.5527C102.687 16.6178 102.468 16.6764 102.225 16.7285L102.87 16.3672L100.086 21.7578L98.7286 21.748ZM97.7845 25.0195V21.123H100.096V25.0195H97.7845ZM96.7253 25.166L96.793 24.3066C96.979 24.2285 97.1875 24.1601 97.4189 24.1015C97.6563 24.0429 97.9002 23.9941 98.1507 23.9551L97.7845 24.9219V23.3887H100.096V24.9219L99.7589 24.0137L101.194 24.2871L101.127 25.166H96.7253ZM107.762 25.3223C106.49 25.3223 105.457 25.0293 104.661 24.4433C104.5 23.3821 104.461 22.4805 104.545 21.7383H105.537L106.674 24.1895L105.845 23.5351C106.539 23.9323 107.252 24.1309 107.984 24.1309C108.485 24.1309 108.87 24.0299 109.139 23.8281C109.409 23.6263 109.544 23.3398 109.544 22.9687C109.544 22.6563 109.438 22.3991 109.226 22.1973C109.014 21.9889 108.671 21.8099 108.195 21.6601L107.078 21.3086C105.396 20.7813 104.555 19.8112 104.555 18.3984C104.555 17.4674 104.885 16.7253 105.547 16.1719C106.208 15.6185 107.097 15.3418 108.214 15.3418C109.235 15.3418 110.16 15.5566 110.988 15.9863C111.116 16.8717 111.155 17.6757 111.104 18.3984H110.074L109.13 16.4063L110.131 17.1289C109.38 16.7317 108.667 16.5332 107.993 16.5332C107.088 16.5332 106.635 16.8945 106.635 17.6172C106.635 17.9362 106.747 18.2031 106.972 18.4179C107.203 18.6328 107.573 18.8216 108.08 18.9843L109.197 19.3359C110.841 19.8567 111.663 20.804 111.663 22.1777C111.663 23.1413 111.309 23.9063 110.603 24.4727C109.903 25.0391 108.956 25.3223 107.762 25.3223Z" fill="#11397E"/>
</g>
</svg>
