<svg width="40" height="40" viewBox="0 0 40 40" fill="none" xmlns="http://www.w3.org/2000/svg">
<rect width="40" height="40" rx="20" fill="white"/>
<path fill-rule="evenodd" clip-rule="evenodd" d="M12.2701 15.4679C12.2004 15.5376 12.1452 15.6203 12.1074 15.7113C12.0697 15.8023 12.0503 15.8999 12.0503 15.9984C12.0503 16.097 12.0697 16.1945 12.1074 16.2855C12.1452 16.3766 12.2004 16.4593 12.2701 16.5289L15.4701 19.7289C15.5393 19.8006 15.622 19.8578 15.7135 19.8971C15.805 19.9365 15.9034 19.9572 16.003 19.9581C16.1026 19.959 16.2013 19.9401 16.2935 19.9024C16.3857 19.8648 16.4695 19.8091 16.5399 19.7387C16.6104 19.6683 16.6661 19.5846 16.7039 19.4925C16.7416 19.4003 16.7606 19.3016 16.7598 19.202C16.759 19.1024 16.7384 19.004 16.6991 18.9124C16.6598 18.8209 16.6027 18.7381 16.5311 18.6689L14.6111 16.7489H24.0011C24.2 16.7489 24.3908 16.6699 24.5315 16.5292C24.6721 16.3886 24.7511 16.1978 24.7511 15.9989C24.7511 15.8 24.6721 15.6092 24.5315 15.4686C24.3908 15.3279 24.2 15.2489 24.0011 15.2489H14.6101L16.5301 13.3289C16.6626 13.1867 16.7347 12.9987 16.7313 12.8044C16.7279 12.6101 16.6492 12.4247 16.5118 12.2873C16.3743 12.1499 16.189 12.0712 15.9947 12.0677C15.8004 12.0643 15.6123 12.1364 15.4701 12.2689L12.2701 15.4679ZM24.5301 20.2679L27.7301 23.4679C27.7998 23.5376 27.8551 23.6203 27.8928 23.7113C27.9306 23.8023 27.95 23.8999 27.95 23.9984C27.95 24.097 27.9306 24.1945 27.8928 24.2855C27.8551 24.3766 27.7998 24.4593 27.7301 24.5289L24.5301 27.7289C24.461 27.8006 24.3783 27.8578 24.2868 27.8971C24.1953 27.9365 24.0969 27.9572 23.9973 27.9581C23.8977 27.959 23.7989 27.9401 23.7068 27.9024C23.6146 27.8648 23.5308 27.8091 23.4603 27.7387C23.3899 27.6683 23.3342 27.5846 23.2964 27.4925C23.2587 27.4003 23.2396 27.3016 23.2404 27.202C23.2413 27.1024 23.2619 27.004 23.3012 26.9124C23.3404 26.8209 23.3975 26.7381 23.4691 26.6689L25.3891 24.7489H15.9991C15.8002 24.7489 15.6095 24.6699 15.4688 24.5292C15.3282 24.3886 15.2491 24.1978 15.2491 23.9989C15.2491 23.8 15.3282 23.6092 15.4688 23.4686C15.6095 23.3279 15.8002 23.2489 15.9991 23.2489H25.3891L23.4691 21.3289C23.3367 21.1867 23.2645 20.9987 23.268 20.8044C23.2714 20.6101 23.3501 20.4247 23.4875 20.2873C23.6249 20.1499 23.8103 20.0712 24.0046 20.0677C24.1989 20.0643 24.387 20.1364 24.5291 20.2689L24.5301 20.2679Z" fill="#74767A"/>
<rect x="0.25" y="0.25" width="39.5" height="39.5" rx="19.75" stroke="#74767A" stroke-opacity="0.6" stroke-width="0.5"/>
</svg>
